<svg width="45" height="45" viewBox="0 0 45 45" fill="none" xmlns="http://www.w3.org/2000/svg">
<path d="M14.6306 10.7461C15.735 10.7461 16.7287 10.8417 17.64 11.0367C18.5456 11.2298 19.3181 11.5486 19.9706 11.9892C20.6138 12.4298 21.1162 13.0148 21.4781 13.7498C21.8287 14.4755 22.0031 15.383 22.0031 16.4555C22.0031 17.618 21.7406 18.5892 21.2138 19.3636C20.6831 20.1398 19.9012 20.7755 18.8587 21.2667C20.2781 21.6773 21.33 22.3955 22.0275 23.4155C22.7288 24.4448 23.0719 25.6767 23.0719 27.1205C23.0719 28.2923 22.8487 29.2992 22.4006 30.1448C21.9688 30.9779 21.3423 31.6944 20.5744 32.2336C19.7789 32.7875 18.8904 33.194 17.9513 33.4336C16.9665 33.6921 15.9525 33.8219 14.9344 33.8198H3.75V10.7461H14.6306ZM13.9725 20.0686C14.8725 20.0686 15.6188 19.8548 16.2075 19.4217C16.7925 18.9942 17.0756 18.2892 17.0756 17.3236C17.0756 16.7873 16.98 16.3448 16.7925 15.998C16.6098 15.6643 16.3395 15.3868 16.0106 15.1955C15.6664 14.9913 15.2866 14.8545 14.8912 14.7923C14.4604 14.712 14.0227 14.6737 13.5844 14.678H8.83125V20.0686H13.9725ZM14.2556 29.8917C14.7563 29.8917 15.2325 29.8486 15.6806 29.7473C16.1325 29.6498 16.5338 29.4923 16.875 29.258C17.2162 29.033 17.4975 28.7273 17.7 28.3373C17.9044 27.9511 18.0038 27.4467 18.0038 26.8411C18.0038 25.6523 17.6681 24.8067 17.0044 24.2948C16.3388 23.7886 15.4463 23.5373 14.3531 23.5373H8.83125V29.8936L14.2556 29.8917ZM30.315 29.8148C31.0031 30.4861 31.995 30.8236 33.285 30.8236C34.2094 30.8236 35.0081 30.5892 35.6813 30.1242C36.345 29.6573 36.75 29.1586 36.9056 28.643H40.9462C40.2975 30.653 39.3131 32.0892 37.9669 32.9536C36.6375 33.8217 35.0194 34.253 33.1294 34.253C31.8131 34.253 30.6281 34.0411 29.5669 33.6211C28.5482 33.2244 27.6277 32.6116 26.8687 31.8248C26.1223 31.0198 25.5453 30.0729 25.1719 29.0405C24.7614 27.8988 24.5583 26.693 24.5719 25.4798C24.5719 24.2311 24.78 23.063 25.1888 21.9848C25.5768 20.9427 26.1726 19.9903 26.94 19.1855C27.6994 18.398 28.5994 17.7773 29.6475 17.3217C30.7497 16.8582 31.9357 16.6271 33.1313 16.643C34.545 16.643 35.7806 16.9167 36.8419 17.468C37.871 17.9942 38.7634 18.753 39.4481 19.6842C40.1287 20.6086 40.6144 21.668 40.9163 22.8548C41.2181 24.0398 41.3231 25.2773 41.2369 26.573H29.1788C29.1806 27.893 29.625 29.1436 30.315 29.8148ZM35.5875 21.038C35.0419 20.4342 34.1194 20.108 32.9906 20.108C32.2575 20.108 31.6519 20.2298 31.1644 20.4811C30.7186 20.7062 30.3232 21.0194 30.0019 21.4017C29.7197 21.7488 29.5105 22.1493 29.3869 22.5792C29.2787 22.9377 29.209 23.3066 29.1788 23.6798H36.645C36.5363 22.5098 36.135 21.6455 35.5875 21.038ZM28.2413 12.2948H37.5956V14.573H28.2413V12.2948Z" fill="#CDCDCD"/>
</svg>
