<svg width="45" height="45" viewBox="0 0 45 45" fill="none" xmlns="http://www.w3.org/2000/svg">
<path d="M39.2754 15.5723C39.2565 14.1523 38.9906 12.7463 38.4898 11.4173C38.0554 10.2964 37.392 9.27834 36.542 8.42828C35.6919 7.57821 34.6739 6.91481 33.5529 6.48047C32.241 5.98801 30.8551 5.72173 29.4541 5.69297C27.6504 5.61234 27.0785 5.58984 22.4998 5.58984C17.921 5.58984 17.3341 5.58984 15.5435 5.69297C14.1432 5.72195 12.7579 5.98822 11.4466 6.48047C10.3255 6.91451 9.30731 7.5778 8.4572 8.4279C7.6071 9.27801 6.94381 10.2962 6.50977 11.4173C6.01632 12.7282 5.75062 14.1138 5.72414 15.5142C5.64352 17.3198 5.61914 17.8917 5.61914 22.4705C5.61914 27.0492 5.61914 27.6342 5.72414 29.4267C5.75227 30.8292 6.01664 32.213 6.50977 33.5273C6.94454 34.6481 7.60832 35.6659 8.45871 36.5157C9.3091 37.3654 10.3274 38.0284 11.4485 38.4623C12.7562 38.9746 14.1417 39.2599 15.5454 39.3061C17.351 39.3867 17.9229 39.4111 22.5016 39.4111C27.0804 39.4111 27.6673 39.4111 29.4579 39.3061C30.8588 39.2785 32.2448 39.0128 33.5566 38.5205C34.6773 38.0856 35.6951 37.422 36.5451 36.572C37.3951 35.722 38.0587 34.7043 38.4935 33.5836C38.9866 32.2711 39.251 30.8873 39.2791 29.483C39.3598 27.6792 39.3841 27.1073 39.3841 22.5267C39.3804 17.948 39.3804 17.3667 39.2754 15.5723ZM22.4885 31.1292C17.6998 31.1292 13.8204 27.2498 13.8204 22.4611C13.8204 17.6723 17.6998 13.793 22.4885 13.793C24.7874 13.793 26.9922 14.7062 28.6178 16.3318C30.2434 17.9574 31.1566 20.1622 31.1566 22.4611C31.1566 24.76 30.2434 26.9648 28.6178 28.5904C26.9922 30.216 24.7874 31.1292 22.4885 31.1292ZM31.5016 15.4936C31.2361 15.4938 30.9732 15.4417 30.7278 15.3402C30.4825 15.2387 30.2596 15.0899 30.0719 14.9021C29.8841 14.7144 29.7352 14.4915 29.6337 14.2461C29.5323 14.0008 29.4801 13.7378 29.4804 13.4723C29.4804 13.207 29.5326 12.9443 29.6342 12.6992C29.7357 12.4541 29.8845 12.2314 30.0721 12.0438C30.2597 11.8562 30.4824 11.7073 30.7276 11.6058C30.9727 11.5043 31.2354 11.452 31.5007 11.452C31.766 11.452 32.0287 11.5043 32.2738 11.6058C32.519 11.7073 32.7417 11.8562 32.9293 12.0438C33.1169 12.2314 33.2657 12.4541 33.3672 12.6992C33.4688 12.9443 33.521 13.207 33.521 13.4723C33.521 14.5898 32.6173 15.4936 31.5016 15.4936Z" fill="#CDCDCD"/>
<path d="M22.488 28.0913C25.5978 28.0913 28.1187 25.5704 28.1187 22.4607C28.1187 19.351 25.5978 16.8301 22.488 16.8301C19.3783 16.8301 16.8574 19.351 16.8574 22.4607C16.8574 25.5704 19.3783 28.0913 22.488 28.0913Z" fill="#CDCDCD"/>
</svg>
