<svg width="45" height="45" viewBox="0 0 45 45" fill="none" xmlns="http://www.w3.org/2000/svg">
<path d="M37.5 5.625H7.5C7.00272 5.625 6.52581 5.82254 6.17417 6.17417C5.82254 6.52581 5.625 7.00272 5.625 7.5V37.5C5.625 37.9973 5.82254 38.4742 6.17417 38.8258C6.52581 39.1775 7.00272 39.375 7.5 39.375H37.5C37.9973 39.375 38.4742 39.1775 38.8258 38.8258C39.1775 38.4742 39.375 37.9973 39.375 37.5V7.5C39.375 7.00272 39.1775 6.52581 38.8258 6.17417C38.4742 5.82254 37.9973 5.625 37.5 5.625ZM15.6356 34.3819H10.6256V18.2756H15.6356V34.3819ZM13.1306 16.0763C12.3608 16.0763 11.6226 15.7705 11.0782 15.2261C10.5339 14.6818 10.2281 13.9435 10.2281 13.1738C10.2281 12.404 10.5339 11.6657 11.0782 11.1214C11.6226 10.577 12.3608 10.2713 13.1306 10.2713C13.9004 10.2713 14.6387 10.577 15.183 11.1214C15.7273 11.6657 16.0331 12.404 16.0331 13.1738C16.0331 13.9435 15.7273 14.6818 15.183 15.2261C14.6387 15.7705 13.9004 16.0763 13.1306 16.0763ZM34.3837 34.3819H29.3794V26.55C29.3794 24.6825 29.3456 22.2806 26.7769 22.2806C24.1706 22.2806 23.775 24.3169 23.775 26.4188V34.3837H18.7744V18.2775H23.5744V20.4787H23.6437C24.3094 19.2131 25.9444 17.8781 28.3762 17.8781C33.4462 17.8781 34.3819 21.2119 34.3819 25.5506L34.3837 34.3819Z" fill="#CDCDCD"/>
</svg>
