<svg width="45" height="45" viewBox="0 0 45 45" fill="none" xmlns="http://www.w3.org/2000/svg">
<path d="M36.8119 14.9939C36.8362 15.322 36.8362 15.6483 36.8362 15.9745C36.8362 25.9589 29.2369 37.4639 15.3487 37.4639C11.07 37.4639 7.095 36.2245 3.75 34.072C4.3575 34.1414 4.9425 34.1658 5.57438 34.1658C8.97374 34.174 12.2768 33.0373 14.9512 30.9389C13.3752 30.9104 11.8473 30.3904 10.5811 29.4515C9.31481 28.5127 8.37335 27.2018 7.88812 25.702C8.355 25.7714 8.82375 25.8183 9.315 25.8183C9.99187 25.8183 10.6725 25.7245 11.3044 25.5614C9.59393 25.2161 8.05589 24.2889 6.95179 22.9377C5.84768 21.5864 5.24567 19.8945 5.24813 18.1495V18.0558C6.255 18.6164 7.42312 18.967 8.66062 19.0139C7.62392 18.325 6.77385 17.3902 6.18626 16.2929C5.59867 15.1956 5.29184 13.9699 5.29312 12.7252C5.29312 11.3227 5.66625 10.0364 6.32063 8.91516C8.21838 11.2496 10.5853 13.1593 13.2681 14.5208C15.9509 15.8822 18.8898 16.6649 21.8944 16.8183C21.7781 16.2558 21.7069 15.6727 21.7069 15.0877C21.7064 14.0957 21.9014 13.1134 22.2808 12.1969C22.6601 11.2803 23.2164 10.4475 23.9179 9.74613C24.6193 9.04472 25.452 8.48843 26.3686 8.10905C27.2851 7.72968 28.2674 7.53466 29.2594 7.53516C31.4344 7.53516 33.3975 8.44641 34.7775 9.92016C36.4683 9.59319 38.0898 8.97595 39.57 8.09578C39.0064 9.84106 37.8258 11.321 36.2494 12.2583C37.749 12.0872 39.2146 11.6929 40.5975 11.0883C39.5646 12.5941 38.2847 13.9146 36.8119 14.9939Z" fill="#CDCDCD"/>
</svg>
