<svg width="45" height="45" viewBox="0 0 45 45" fill="none" xmlns="http://www.w3.org/2000/svg">
<path d="M40.4877 13.5056C40.2742 12.7133 39.8568 11.9906 39.2772 11.4097C38.6975 10.8288 37.9759 10.4098 37.184 10.1944C34.2477 9.38814 22.5009 9.37501 22.5009 9.37501C22.5009 9.37501 10.7559 9.36189 7.81774 10.1325C7.02635 10.3578 6.30615 10.7827 5.7263 11.3665C5.14644 11.9503 4.7264 12.6734 4.50649 13.4663C3.73211 16.4025 3.72461 22.4925 3.72461 22.4925C3.72461 22.4925 3.71711 28.6125 4.48586 31.5188C4.91711 33.1256 6.18274 34.395 7.79149 34.8281C10.7577 35.6344 22.4727 35.6475 22.4727 35.6475C22.4727 35.6475 34.2196 35.6606 37.1559 34.8919C37.948 34.6769 38.6704 34.2589 39.2515 33.6791C39.8325 33.0993 40.2522 32.378 40.469 31.5863C41.2452 28.6519 41.2509 22.5638 41.2509 22.5638C41.2509 22.5638 41.2884 16.4419 40.4877 13.5056ZM18.7434 28.1344L18.7527 16.8844L28.5159 22.5188L18.7434 28.1344Z" fill="#CDCDCD"/>
</svg>
